<?xml version="1.0" encoding="utf-8"?>
<!-- Generator: Adobe Illustrator 16.0.0, SVG Export Plug-In . SVG Version: 6.00 Build 0)  -->
<!DOCTYPE svg PUBLIC "-//W3C//DTD SVG 1.1//EN" "http://www.w3.org/Graphics/SVG/1.1/DTD/svg11.dtd">
<svg version="1.1" id="Layer_1" xmlns="http://www.w3.org/2000/svg" xmlns:xlink="http://www.w3.org/1999/xlink" x="0px" y="0px"
	 width="50.75px" height="50.125px" viewBox="0 0 50.75 50.125" enable-background="new 0 0 50.75 50.125" xml:space="preserve">
<g>
	<path fill="#25B99A" d="M10.897,44.185c-9.315-9.314-9.326-24.405-0.026-33.707c9.303-9.3,24.392-9.288,33.706,0.027"/>
	<circle fill="#25B99A" cx="26.612" cy="26.339" r="20.276"/>
	<g>
		<path fill="none" stroke="#FFFFFF" stroke-width="3" stroke-miterlimit="10" d="M17.356,13.979l0.23,0.193
			C17.517,14.095,17.44,14.031,17.356,13.979z"/>
		<path fill="none" stroke="#FFFFFF" stroke-width="3" stroke-miterlimit="10" d="M17.365,37.393c0.078-0.05,0.151-0.11,0.217-0.183
			L17.365,37.393z"/>
		<g>
			<g>
				
					<line fill="none" stroke="#FFFFFF" stroke-width="3" stroke-linecap="round" stroke-miterlimit="10" x1="31.036" y1="25.445" x2="17.586" y2="14.172"/>
			</g>
			<g>
				<path fill="none" stroke="#FFFFFF" stroke-width="3" stroke-miterlimit="10" d="M28.242,28.274"/>
			</g>
			<g>
				
					<line fill="none" stroke="#FFFFFF" stroke-width="3" stroke-linecap="round" stroke-miterlimit="10" x1="17.582" y1="37.21" x2="22.158" y2="33.374"/>
			</g>
			<path fill="none" stroke="#FFFFFF" stroke-width="3" stroke-miterlimit="10" d="M17.356,13.979
				c-0.133-0.083-0.282-0.13-0.439-0.13c-0.576,0-1.044,0.621-1.044,1.386v10.454v10.452c0,0.766,0.468,1.386,1.044,1.386
				c0.161,0,0.313-0.05,0.448-0.135"/>
			<path fill="none" stroke="#FFFFFF" stroke-width="3" stroke-miterlimit="10" d="M29.658,24.291"/>
		</g>
	</g>
	<g>
		<path fill="none" stroke="#FFFFFF" stroke-width="3" stroke-miterlimit="10" d="M35.755,37.381l-0.23-0.192
			C35.595,37.265,35.673,37.33,35.755,37.381z"/>
		<path fill="none" stroke="#FFFFFF" stroke-width="3" stroke-miterlimit="10" d="M35.747,13.969
			c-0.078,0.049-0.152,0.11-0.217,0.182L35.747,13.969z"/>
		<g>
			<g>
				
					<line fill="none" stroke="#FFFFFF" stroke-width="3" stroke-linecap="round" stroke-miterlimit="10" x1="22.076" y1="25.915" x2="35.524" y2="37.188"/>
			</g>
			<g>
				<path fill="none" stroke="#FFFFFF" stroke-width="3" stroke-miterlimit="10" d="M24.871,23.085"/>
			</g>
			<g>
				
					<line fill="none" stroke="#FFFFFF" stroke-width="3" stroke-linecap="round" stroke-miterlimit="10" x1="35.53" y1="14.15" x2="30.954" y2="17.986"/>
			</g>
			<path fill="none" stroke="#FFFFFF" stroke-width="3" stroke-miterlimit="10" d="M35.755,37.381
				c0.135,0.083,0.283,0.13,0.439,0.13c0.578,0,1.045-0.62,1.045-1.386V25.671V15.219c0-0.766-0.467-1.386-1.045-1.386
				c-0.16,0-0.311,0.049-0.447,0.135"/>
			<path fill="none" stroke="#FFFFFF" stroke-width="3" stroke-miterlimit="10" d="M23.454,27.07"/>
		</g>
	</g>
</g>
</svg>
